<mxfile host="app.diagrams.net" modified="2023-07-18T08:34:36.811Z" agent="Mozilla/5.0 (Windows NT 10.0; Win64; x64) AppleWebKit/537.36 (KHTML, like Gecko) Chrome/114.0.0.0 Safari/537.36" etag="IV7B_p4ZYPrqDntdcp7D" version="21.5.2" type="device">
  <diagram name="Page-1" id="dAzRpMWtoazEdnSgzSlm">
    <mxGraphModel dx="1050" dy="573" grid="1" gridSize="10" guides="1" tooltips="1" connect="1" arrows="1" fold="1" page="1" pageScale="1" pageWidth="850" pageHeight="1100" background="none" math="0" shadow="0">
      <root>
        <mxCell id="0" />
        <mxCell id="1" parent="0" />
        <mxCell id="m6ZR_6QVO6rz8r0tKlv4-1" value="" style="verticalLabelPosition=bottom;verticalAlign=top;html=1;shape=mxgraph.basic.arc;startAngle=0.38257308609418406;endAngle=0.1;fillColor=#6a00ff;fontColor=#ffffff;strokeColor=#3700CC;gradientColor=default;labelBackgroundColor=#070fed;" vertex="1" parent="1">
          <mxGeometry x="410" y="290" width="60" height="60" as="geometry" />
        </mxCell>
      </root>
    </mxGraphModel>
  </diagram>
</mxfile>
